<?xml version="1.0" encoding="UTF-8"?>
<svg id="Layer_1" data-name="Layer 1" xmlns="http://www.w3.org/2000/svg" viewBox="0 0 320.4 115.66">
  <defs>
    <style>
      .cls-1 {
        stroke-width: 2.5px;
      }

      .cls-1, .cls-2, .cls-3, .cls-4 {
        stroke: #a3d9f5;
        stroke-miterlimit: 10;
      }

      .cls-1, .cls-3 {
        fill: none;
      }

      .cls-2 {
        stroke-width: .45px;
      }

      .cls-2, .cls-4 {
        fill: #a3d9f5;
      }

      .cls-3 {
        stroke-width: 2px;
      }

      .cls-4 {
        stroke-width: .25px;
      }
    </style>
  </defs>
  <polyline class="cls-3" points="1 44.51 1 85.53 85.99 85.53"/>
  <polyline class="cls-3" points="8.87 36.02 8.89 77.37 164.76 77.29"/>
  <path class="cls-2" d="M42.37,58s-13.13-3.94-12.47-21c.63-16.45,12.21-19.4,12.21-19.4l.96,1.44s-11.85,4.17-11.2,19.27c.66,15.1,11.81,18.38,11.81,18.38l-1.31,1.31Z"/>
  <path class="cls-2" d="M56.81,27.8s0-7.22-5.91-8.53c0,0-3.88-.82-6.86,1.23l-1.93-2.91s3.46-1.5,8.42-.24,6.24,3.92,6.24,3.92l.03,6.53Z"/>
  <path class="cls-2" d="M43.07,19.04s-4.03,2.03-5.95,10.74-1.01,18.22,2.51,22.85c2.09,2.75,4.06,4.06,4.06,4.06l1.13-1.26s-5.07-3.33-5.73-11.21-1.91-15.26,4.95-23.71l-.98-1.47Z"/>
  <path class="cls-2" d="M57.47,46.84l2.63,1.31s-1.97,12.47-17.72,9.84l2.44-2.58s11.34,2.58,12.65-8.58Z"/>
  <rect class="cls-2" x="56.78" y="17.89" width="2.36" height="15.06"/>
  <path class="cls-2" d="M77.36,19.56s-4.14,1.24-6.29,6.21c-2.14,4.96-3.35,9.65-2.09,17.48,1.26,7.83,5.29,11.32,8.2,12.86,0,0,2.01,1.05,2.46.97l-.87.99s-6.39-1.44-9.1-6.18-3.5-8.81-3.43-12.68.07-9.12,2.86-13.84c3.2-5.41,7.63-7,7.63-7l.63,1.2Z"/>
  <path class="cls-2" d="M86.36,20.62s3.04,2.41,2.32,12.82h2.41s1.07-11.72-3.99-13.78l-.75.96Z"/>
  <path class="cls-2" d="M76.73,18.36l.63,1.2,1.01,1.91s1.55-1.86,3.92-2.21,4.06,1.36,4.06,1.36l.75-.96,1.34-1.57s-6.54-2.26-11.72.27Z"/>
  <path class="cls-2" d="M74.18,33.35s.14,2.34.07,2.16,23.2,0,23.2,0l-.05-2.07-23.22-.09Z"/>
  <path class="cls-2" d="M78.38,21.47s-.99,1.07-1.94,3.85-2.3,8.14-1.13,19.58c.83,8.14,5.73,10.56,5.73,10.56l-1.12,1.41s-4.19-1.95-5.95-7.48-2.01-14.56-.9-19.56c1.11-5.01,2.2-8.43,4.61-9.67l.7,1.32Z"/>
  <path class="cls-2" d="M87.45,19.26s2.36.83,3.73,2.21,2.81,3.44,3.4,6.68.5,5.29.5,5.29h2.32s.24-9.69-5.26-13.42c0,0-1.9-1.44-3.7-1.93l-1,1.17Z"/>
  <path class="cls-2" d="M78.77,58.06l2.27-2.6s4.3,2.18,8.89-.45c0,0,2.58-1.35,3.92-3.63s2.26-3.77,2.78-5.65l1.94.78s-2.08,7.85-7.98,10.47c-5.91,2.63-11.82,1.08-11.82,1.08Z"/>
  <path class="cls-2" d="M117.5,58.29s-13.13-3.94-12.47-21c.63-16.45,12.21-19.4,12.21-19.4l.96,1.44s-11.85,4.17-11.2,19.27c.66,15.1,11.81,18.38,11.81,18.38l-1.31,1.31Z"/>
  <path class="cls-2" d="M131.94,28.1s0-7.22-5.91-8.53c0,0-3.88-.82-6.86,1.23l-1.93-2.91s3.46-1.5,8.42-.24,6.24,3.92,6.24,3.92l.03,6.53Z"/>
  <rect class="cls-2" x="131.9" y="18.18" width="2.36" height="15.06"/>
  <path class="cls-2" d="M118.19,19.33s-4.03,2.03-5.95,10.74-1.01,18.22,2.51,22.85c2.09,2.75,4.06,4.06,4.06,4.06l1.13-1.26s-5.07-3.33-5.73-11.21c-.66-7.88-1.91-15.26,4.95-23.71l-.98-1.47Z"/>
  <path class="cls-2" d="M132.59,47.14l2.63,1.31s-1.97,12.47-17.72,9.84l2.44-2.58s11.34,2.58,12.65-8.58Z"/>
  <rect class="cls-2" x="145.19" y="20.35" width="2.36" height="34.85"/>
  <rect class="cls-2" x="142.04" y="18.28" width="11.42" height="2.07"/>
  <rect class="cls-2" x="151.1" y="20.35" width="2.36" height="34.85"/>
  <rect class="cls-2" x="142.04" y="55.2" width="14.57" height="2.07"/>
  <ellipse class="cls-1" cx="149.4" cy="5.52" rx="4.27" ry="4.24"/>
  <rect class="cls-2" x="168.03" y="2.63" width="2.36" height="52.57"/>
  <rect class="cls-2" x="173.94" y="2.63" width="2.36" height="52.57"/>
  <rect class="cls-4" x="164.49" y=".56" width="11.81" height="2.07"/>
  <rect class="cls-2" x="165.28" y="55.2" width="14.57" height="2.07"/>
  <rect class="cls-2" x="190.87" y="20.35" width="2.36" height="34.85"/>
  <rect class="cls-2" x="196.78" y="20.35" width="2.36" height="34.85"/>
  <rect class="cls-2" x="187.72" y="18.28" width="11.42" height="2.07"/>
  <rect class="cls-2" x="187.72" y="55.2" width="14.57" height="2.07"/>
  <ellipse class="cls-1" cx="194.62" cy="5.49" rx="4.27" ry="4.24"/>
  <path class="cls-2" d="M212.23,30.78h2.36v-7.09s2.52-4.99,9.16-3.9v-3.14s-8.01.86-11.52,6.16v7.97Z"/>
  <path class="cls-2" d="M223.75,16.65s5.77-.91,9.81,1.99,4.82,6.65,4.76,15.93c-.06,9.28-.61,17.07.32,19.08s2.14,1.92,3.18,1.31,1.72-1.74,1.72-1.74v3.52s-1.9,1.45-2.61,1.5l-.7-1.92s-3.28,0-4.12-3.84l.18-21.76s0-10.36-7.95-12.31c-.11-.03-.23-.04-.34-.05-.75-.05-3.74-.25-4.25-.18v-1.53Z"/>
  <path class="cls-2" d="M223.75,18.38s4.7.17,6.65,3.64,1.94,7.76,1.95,15.13c0,7.37-.87,16.26,2.52,18.7s5.62.83,5.62.83l.65,1.52s-8.59,2.5-10.99-6.25c0,0,.88-17.78-1.05-27.65-.02-.09-.05-.17-.09-.25-.38-.69-2.37-4.05-5.25-4.25v-1.41Z"/>
  <path class="cls-2" d="M230.24,36.1s-10.11,2.43-11.87,8.38c-1.77,5.94.22,9.99,1.52,11.58s4.37.58,5.79-.56,4.59-5.83,4.64-9.72l-.18,6.17s-2.32,9.29-13.18,6.18l.95-1.14s-3.65-4.13-2.48-10.27,5.66-8.15,5.66-8.15l-.6-1.56,9.9-3.65-.14,2.75Z"/>
  <path class="cls-2" d="M220.49,37s-8.37,2.29-10.07,6.54-1.33,10.99,4.07,13.53c0,0,1.53.89,2.48,1.06l.71-.86s-6.98-3.57-5.67-10.13,8.97-8.88,8.97-8.88l-.48-1.25Z"/>
  <polyline class="cls-3" points="251.06 24.49 309.47 24.49 309.47 59.61"/>
  <rect class="cls-2" x="190.45" y="77.21" width="2.36" height="34.85"/>
  <rect class="cls-2" x="186.91" y="75.14" width="11.81" height="2.07"/>
  <path class="cls-2" d="M198.72,92.08c.16-.31.56-10.03,6.27-13.38s7.63-1.82,7.63-1.82v-2.17s-6.38-1.57-11.04,4.46c0,0-2.69,4.06-3.35,6.03s0,0,0,0l.49,6.88Z"/>
  <rect class="cls-2" x="196.36" y="77.21" width="2.36" height="34.85"/>
  <rect class="cls-2" x="186.91" y="112.05" width="17.33" height="2.07"/>
  <path class="cls-2" d="M216.42,93.57h2.28s.56-18.47,14.32-18.02c13.77.46,14.42,15.55,14.32,18.02h2.34s1.17-19.31-16.62-19.42c-17.79-.11-16.66,19.42-16.66,19.42Z"/>
  <path class="cls-2" d="M216.42,93.57s-1.13,21.82,15.94,21.82c0,0,17.72,1.97,17.34-21.82h-2.34s.1,21.16-15,20.51c-15.1-.66-13.65-20.51-13.65-20.51h-2.28Z"/>
  <path class="cls-2" d="M232.99,76.52s8.55-1.17,8.55,17.21c0,15.75-1.97,18.38-9.2,19.66v1.34s12.49,1.97,11.17-20.35c0,0,1.31-19.64-10.5-19.01l-.02,1.14Z"/>
  <path class="cls-2" d="M233.01,75.38s-10.5-1.54-10.5,19.24,7.21,19.44,9.83,20.11v-1.34s-8.52.03-7.86-18.77c.7-20.14,8.52-18.1,8.52-18.1l.02-1.14Z"/>
  <rect class="cls-2" x="260.15" y="77.21" width="2.36" height="34.85"/>
  <rect class="cls-2" x="266.06" y="77.21" width="2.36" height="34.85"/>
  <rect class="cls-2" x="256.61" y="75.14" width="11.81" height="2.07"/>
  <rect class="cls-2" x="256.61" y="112.06" width="17.33" height="2.07"/>
  <path class="cls-2" d="M268.42,92.08c.16-.31.56-10.03,6.27-13.38s7.63-1.82,7.63-1.82v-2.17s-6.38-1.57-11.04,4.46c0,0-2.69,4.06-3.35,6.03s0,0,0,0l.49,6.88Z"/>
  <path class="cls-2" d="M288.87,87.35h2.36v-7.09s2.52-4.99,9.16-3.9v-3.14s-8.01.86-11.52,6.16v7.97Z"/>
  <path class="cls-2" d="M300.39,73.22s5.77-.91,9.81,1.99,4.82,6.65,4.76,15.93-.61,17.07.32,19.08,2.14,1.92,3.18,1.31,1.72-1.74,1.72-1.74v3.52s-1.9,1.45-2.61,1.5l-.7-1.92s-3.28,0-4.12-3.84l.18-21.76s0-10.36-7.95-12.31c-.11-.03-.23-.04-.34-.05-.75-.05-3.74-.25-4.25-.18v-1.53Z"/>
  <path class="cls-2" d="M297.12,93.57s-8.37,2.29-10.07,6.54-1.33,10.99,4.07,13.53c0,0,1.53.89,2.48,1.06l.71-.86s-6.98-3.57-5.67-10.13c1.31-6.56,8.97-8.88,8.97-8.88l-.48-1.25Z"/>
  <path class="cls-2" d="M306.87,92.67s-10.11,2.43-11.87,8.38c-1.77,5.94.22,9.99,1.52,11.58s4.37.58,5.79-.56,4.59-5.83,4.64-9.72l-.18,6.17s-2.32,9.29-13.18,6.18l.95-1.14s-3.65-4.13-2.48-10.27,5.66-8.15,5.66-8.15l-.6-1.56,9.9-3.65-.14,2.75Z"/>
  <path class="cls-2" d="M300.39,74.95s4.7.17,6.65,3.64,1.94,7.76,1.95,15.13c0,7.37-.87,16.26,2.52,18.7s5.62.83,5.62.83l.65,1.52s-8.59,2.5-10.99-6.25c0,0,.88-17.78-1.05-27.65-.02-.09-.05-.17-.09-.25-.38-.69-2.37-4.05-5.25-4.25v-1.41Z"/>
</svg>